<svg width="30" height="30" viewBox="0 0 30 30" fill="none" xmlns="http://www.w3.org/2000/svg">
<path d="M9.74951 2.49986H20.2495C24.2495 2.49986 27.4995 5.74986 27.4995 9.74986V20.2499C27.4995 22.1727 26.7357 24.0167 25.376 25.3764C24.0164 26.736 22.1723 27.4999 20.2495 27.4999H9.74951C5.74951 27.4999 2.49951 24.2499 2.49951 20.2499V9.74986C2.49951 7.82704 3.26335 5.98297 4.62299 4.62333C5.98263 3.26369 7.82669 2.49986 9.74951 2.49986ZM9.49951 4.99986C8.30604 4.99986 7.16145 5.47396 6.31753 6.31788C5.47362 7.16179 4.99951 8.30638 4.99951 9.49986V20.4999C4.99951 22.9874 7.01201 24.9999 9.49951 24.9999H20.4995C21.693 24.9999 22.8376 24.5258 23.6815 23.6818C24.5254 22.8379 24.9995 21.6933 24.9995 20.4999V9.49986C24.9995 7.01236 22.987 4.99986 20.4995 4.99986H9.49951ZM21.562 6.87486C21.9764 6.87486 22.3738 7.03948 22.6669 7.3325C22.9599 7.62553 23.1245 8.02296 23.1245 8.43736C23.1245 8.85176 22.9599 9.24919 22.6669 9.54221C22.3738 9.83524 21.9764 9.99986 21.562 9.99986C21.1476 9.99986 20.7502 9.83524 20.4572 9.54221C20.1641 9.24919 19.9995 8.85176 19.9995 8.43736C19.9995 8.02296 20.1641 7.62553 20.4572 7.3325C20.7502 7.03948 21.1476 6.87486 21.562 6.87486ZM14.9995 8.74986C16.6571 8.74986 18.2468 9.40834 19.4189 10.5804C20.591 11.7525 21.2495 13.3423 21.2495 14.9999C21.2495 16.6575 20.591 18.2472 19.4189 19.4193C18.2468 20.5914 16.6571 21.2499 14.9995 21.2499C13.3419 21.2499 11.7522 20.5914 10.5801 19.4193C9.40799 18.2472 8.74951 16.6575 8.74951 14.9999C8.74951 13.3423 9.40799 11.7525 10.5801 10.5804C11.7522 9.40834 13.3419 8.74986 14.9995 8.74986ZM14.9995 11.2499C14.005 11.2499 13.0511 11.6449 12.3479 12.3482C11.6446 13.0515 11.2495 14.0053 11.2495 14.9999C11.2495 15.9944 11.6446 16.9482 12.3479 17.6515C13.0511 18.3548 14.005 18.7499 14.9995 18.7499C15.9941 18.7499 16.9479 18.3548 17.6512 17.6515C18.3544 16.9482 18.7495 15.9944 18.7495 14.9999C18.7495 14.0053 18.3544 13.0515 17.6512 12.3482C16.9479 11.6449 15.9941 11.2499 14.9995 11.2499Z" fill="#020223"/>
</svg>
