<svg width="20" height="20" viewBox="0 0 20 20" fill="none" xmlns="http://www.w3.org/2000/svg">
<g clip-path="url(#clip0_1090_921)">
<path fill-rule="evenodd" clip-rule="evenodd" d="M6.91071 10.5891C6.75448 10.4329 6.66672 10.2209 6.66672 9.99997C6.66672 9.779 6.75448 9.56708 6.91071 9.41081L11.6249 4.69664C11.7017 4.61705 11.7937 4.55356 11.8954 4.50989C11.997 4.46621 12.1064 4.44323 12.217 4.44226C12.3277 4.4413 12.4374 4.46239 12.5398 4.50429C12.6423 4.54619 12.7353 4.60807 12.8135 4.68631C12.8918 4.76455 12.9537 4.8576 12.9956 4.96001C13.0375 5.06242 13.0585 5.17216 13.0576 5.28281C13.0566 5.39346 13.0336 5.50281 12.99 5.60448C12.9463 5.70615 12.8828 5.7981 12.8032 5.87497L8.67821 9.99997L12.8032 14.125C12.955 14.2821 13.039 14.4926 13.0371 14.7111C13.0352 14.9296 12.9476 15.1386 12.7931 15.2932C12.6386 15.4477 12.4295 15.5353 12.211 15.5372C11.9925 15.5391 11.782 15.4551 11.6249 15.3033L6.91071 10.5891Z" fill="black"/>
</g>
<defs>
<clipPath id="clip0_1090_921">
<rect width="20" height="20" fill="white" transform="matrix(-1 0 0 -1 20 20)"/>
</clipPath>
</defs>
</svg>
