<svg width="20" height="20" viewBox="0 0 20 20" fill="none" xmlns="http://www.w3.org/2000/svg">
<g clip-path="url(#clip0_1090_931)">
<path fill-rule="evenodd" clip-rule="evenodd" d="M13.0893 10.5891C13.2455 10.4329 13.3333 10.2209 13.3333 9.99997C13.3333 9.779 13.2455 9.56708 13.0893 9.41081L8.37512 4.69664C8.29825 4.61705 8.2063 4.55356 8.10463 4.50989C8.00296 4.46621 7.89361 4.44323 7.78296 4.44226C7.67231 4.4413 7.56258 4.46239 7.46016 4.50429C7.35775 4.54619 7.2647 4.60807 7.18646 4.68631C7.10822 4.76455 7.04634 4.8576 7.00444 4.96001C6.96254 5.06242 6.94145 5.17216 6.94241 5.28281C6.94338 5.39346 6.96636 5.50281 7.01004 5.60448C7.05371 5.70615 7.1172 5.7981 7.19679 5.87497L11.3218 9.99997L7.19679 14.125C7.04499 14.2821 6.961 14.4926 6.96289 14.7111C6.96479 14.9296 7.05243 15.1386 7.20694 15.2932C7.36145 15.4477 7.57046 15.5353 7.78896 15.5372C8.00745 15.5391 8.21795 15.4551 8.37512 15.3033L13.0893 10.5891Z" fill="white"/>
</g>
<defs>
<clipPath id="clip0_1090_931">
<rect width="20" height="20" fill="white" transform="matrix(1 0 0 -1 0 20)"/>
</clipPath>
</defs>
</svg>
