<svg width="27" height="27" viewBox="0 0 27 27" fill="none" xmlns="http://www.w3.org/2000/svg">
<path d="M7.80762 5.625C7.80732 6.22173 7.56998 6.79391 7.14781 7.21566C6.72564 7.6374 6.15323 7.87417 5.55649 7.87387C4.95976 7.87357 4.38758 7.63623 3.96583 7.21407C3.54409 6.7919 3.30732 6.21948 3.30762 5.62275C3.30792 5.02601 3.54525 4.45383 3.96742 4.03209C4.38959 3.61034 4.96201 3.37357 5.55874 3.37387C6.15548 3.37417 6.72766 3.61151 7.1494 4.03368C7.57115 4.45584 7.80792 5.02826 7.80762 5.625ZM7.87512 9.54H3.37512V23.625H7.87512V9.54ZM14.9851 9.54H10.5076V23.625H14.9401V16.2337C14.9401 12.1162 20.3064 11.7337 20.3064 16.2337V23.625H24.7501V14.7037C24.7501 7.7625 16.8076 8.02125 14.9401 11.43L14.9851 9.54Z" fill="black"/>
</svg>
