<svg width="40" height="40" viewBox="0 0 40 40" fill="none" xmlns="http://www.w3.org/2000/svg">
<path fill-rule="evenodd" clip-rule="evenodd" d="M26.8824 4C26.0899 3.99973 25.3071 4.17337 24.589 4.50865C23.8709 4.84393 23.2351 5.33269 22.7266 5.94046C22.218 6.54823 21.8489 7.26019 21.6455 8.02612C21.442 8.79205 21.4091 9.5933 21.5491 10.3733L13.6658 15.8933L13.5524 15.9817C12.7527 15.3565 11.7933 14.9686 10.7837 14.8623C9.77419 14.756 8.75507 14.9355 7.84261 15.3804C6.93015 15.8253 6.16107 16.5176 5.62307 17.3785C5.08507 18.2393 4.7998 19.234 4.7998 20.2492C4.7998 21.2643 5.08507 22.259 5.62307 23.1199C6.16107 23.9807 6.93015 24.6731 7.84261 25.1179C8.75507 25.5628 9.77419 25.7424 10.7837 25.636C11.7933 25.5297 12.7527 25.1419 13.5524 24.5167L13.6658 24.6067L21.5491 30.1267C21.4936 30.4378 21.4658 30.7567 21.4658 31.0833C21.466 32.3675 21.9224 33.6098 22.7536 34.5886C23.5848 35.5674 24.7367 36.2191 26.0039 36.4274C27.271 36.6357 28.5709 36.387 29.6717 35.7257C30.7725 35.0645 31.6026 34.0337 32.0138 32.8172C32.4251 31.6007 32.3908 30.2776 31.917 29.0841C31.4433 27.8905 30.5609 26.9041 29.4273 26.3008C28.2937 25.6975 26.9827 25.5165 25.728 25.7902C24.4734 26.0639 23.3568 26.7744 22.5774 27.795L15.1124 22.5667C15.4458 21.8633 15.6324 21.0783 15.6324 20.2483C15.6324 19.4183 15.4458 18.6317 15.1124 17.93L22.5791 12.7033C23.1382 13.4358 23.8749 14.0135 24.7196 14.3818C25.5642 14.7501 26.4889 14.8969 27.406 14.8082C28.3232 14.7195 29.2026 14.3983 29.961 13.875C30.7195 13.3516 31.3318 12.6435 31.7402 11.8175C32.1487 10.9915 32.3396 10.0749 32.295 9.15456C32.2504 8.23419 31.9718 7.3404 31.4854 6.55775C30.9991 5.77509 30.3211 5.12944 29.5157 4.68188C28.7102 4.23431 27.8039 3.99962 26.8824 4ZM23.9658 9.41667C23.9658 8.64312 24.2731 7.90125 24.82 7.35427C25.367 6.80729 26.1089 6.5 26.8824 6.5C27.656 6.5 28.3979 6.80729 28.9448 7.35427C29.4918 7.90125 29.7991 8.64312 29.7991 9.41667C29.7991 10.1902 29.4918 10.9321 28.9448 11.4791C28.3979 12.026 27.656 12.3333 26.8824 12.3333C26.1089 12.3333 25.367 12.026 24.82 11.4791C24.2731 10.9321 23.9658 10.1902 23.9658 9.41667ZM10.2158 17.3333C9.44223 17.3333 8.70036 17.6406 8.15338 18.1876C7.6064 18.7346 7.29911 19.4764 7.29911 20.25C7.29911 21.0235 7.6064 21.7654 8.15338 22.3124C8.70036 22.8594 9.44223 23.1667 10.2158 23.1667C10.9893 23.1667 11.7312 22.8594 12.2782 22.3124C12.8252 21.7654 13.1324 21.0235 13.1324 20.25C13.1324 19.4764 12.8252 18.7346 12.2782 18.1876C11.7312 17.6406 10.9893 17.3333 10.2158 17.3333ZM26.8824 28.1667C26.1089 28.1667 25.367 28.474 24.82 29.0209C24.2731 29.5679 23.9658 30.3098 23.9658 31.0833C23.9658 31.8569 24.2731 32.5987 24.82 33.1457C25.367 33.6927 26.1089 34 26.8824 34C27.656 34 28.3979 33.6927 28.9448 33.1457C29.4918 32.5987 29.7991 31.8569 29.7991 31.0833C29.7991 30.3098 29.4918 29.5679 28.9448 29.0209C28.3979 28.474 27.656 28.1667 26.8824 28.1667Z" fill="#020223"/>
</svg>
