<svg width="16" height="16" viewBox="0 0 16 16" fill="none" xmlns="http://www.w3.org/2000/svg">
<path d="M13.9335 1.33334H2.06683C1.87234 1.33334 1.68581 1.41061 1.54828 1.54813C1.41076 1.68566 1.3335 1.87218 1.3335 2.06668V13.9333C1.3335 14.1278 1.41076 14.3144 1.54828 14.4519C1.68581 14.5894 1.87234 14.6667 2.06683 14.6667H8.4535V9.50001H6.72016V7.50001H8.4535V6.00001C8.41759 5.64785 8.45917 5.29209 8.57531 4.9577C8.69145 4.62331 8.87934 4.31837 9.12581 4.06428C9.37227 3.81019 9.67135 3.6131 10.002 3.48684C10.3327 3.36057 10.6871 3.30818 11.0402 3.33334C11.5591 3.32976 12.0777 3.35647 12.5935 3.41334V5.21334H11.5335C10.6935 5.21334 10.5335 5.61334 10.5335 6.19334V7.48001H12.5335L12.2735 9.48001H10.5335V14.6667H13.9335C14.0298 14.6667 14.1252 14.6477 14.2141 14.6109C14.3031 14.574 14.3839 14.52 14.452 14.4519C14.5201 14.3838 14.5742 14.3029 14.611 14.214C14.6479 14.125 14.6668 14.0296 14.6668 13.9333V2.06668C14.6668 1.97037 14.6479 1.87501 14.611 1.78604C14.5742 1.69707 14.5201 1.61623 14.452 1.54813C14.3839 1.48004 14.3031 1.42602 14.2141 1.38917C14.1252 1.35231 14.0298 1.33334 13.9335 1.33334Z" fill="#99A1AF"/>
</svg>
