<svg width="32" height="32" viewBox="0 0 32 32" fill="none" xmlns="http://www.w3.org/2000/svg">
<path d="M21.3333 2.66666V7.99999V2.66666ZM10.6667 2.66666V7.99999V2.66666ZM28 16C28 10.972 28 8.45732 26.4373 6.89599C24.8747 5.33466 22.3613 5.33332 17.3333 5.33332H14.6667C9.63867 5.33332 7.124 5.33332 5.56267 6.89599C4.00133 8.45866 4 10.972 4 16V18.6667C4 23.6947 4 26.2093 5.56267 27.7707C7.12533 29.332 9.63867 29.3333 14.6667 29.3333M4 13.3333H28H4Z" fill="#C8FA50"/>
<path d="M21.3333 2.66666V7.99999M10.6667 2.66666V7.99999M28 16C28 10.972 28 8.45732 26.4373 6.89599C24.8747 5.33466 22.3613 5.33332 17.3333 5.33332H14.6667C9.63867 5.33332 7.124 5.33332 5.56267 6.89599C4.00133 8.45866 4 10.972 4 16V18.6667C4 23.6947 4 26.2093 5.56267 27.7707C7.12533 29.332 9.63867 29.3333 14.6667 29.3333M4 13.3333H28" stroke="#020223" stroke-width="2" stroke-linecap="round" stroke-linejoin="round"/>
<path d="M24.3557 24.9347L22.6663 24V21.6893M27.9997 24C27.9997 25.4145 27.4378 26.771 26.4376 27.7712C25.4374 28.7714 24.0808 29.3333 22.6663 29.3333C21.2519 29.3333 19.8953 28.7714 18.8951 27.7712C17.8949 26.771 17.333 25.4145 17.333 24C17.333 22.5855 17.8949 21.2289 18.8951 20.2288C19.8953 19.2286 21.2519 18.6667 22.6663 18.6667C24.0808 18.6667 25.4374 19.2286 26.4376 20.2288C27.4378 21.2289 27.9997 22.5855 27.9997 24Z" fill="#C8FA50"/>
<path d="M24.3557 24.9347L22.6663 24V21.6893M27.9997 24C27.9997 25.4145 27.4378 26.771 26.4376 27.7712C25.4374 28.7714 24.0808 29.3333 22.6663 29.3333C21.2519 29.3333 19.8953 28.7714 18.8951 27.7712C17.8949 26.771 17.333 25.4145 17.333 24C17.333 22.5855 17.8949 21.2289 18.8951 20.2288C19.8953 19.2286 21.2519 18.6667 22.6663 18.6667C24.0808 18.6667 25.4374 19.2286 26.4376 20.2288C27.4378 21.2289 27.9997 22.5855 27.9997 24Z" stroke="#020223" stroke-width="2" stroke-linecap="round" stroke-linejoin="round"/>
</svg>
