<svg width="20" height="20" viewBox="0 0 20 20" fill="none" xmlns="http://www.w3.org/2000/svg">
<path d="M14.9993 6.24998C15.5519 6.24998 16.0818 6.03049 16.4725 5.63978C16.8632 5.24908 17.0827 4.71918 17.0827 4.16665C17.0827 3.61411 16.8632 3.08421 16.4725 2.69351C16.0818 2.30281 15.5519 2.08331 14.9993 2.08331C14.4468 2.08331 13.9169 2.30281 13.5262 2.69351C13.1355 3.08421 12.916 3.61411 12.916 4.16665C12.916 4.71918 13.1355 5.24908 13.5262 5.63978C13.9169 6.03049 14.4468 6.24998 14.9993 6.24998Z" stroke="black" stroke-width="2"/>
<path d="M4.99964 6.98746L8.33422 5.83246L12.9163 8.01954L8.33422 11.435L12.9163 14.4516L10.003 18.3325M14.7163 9.01787L15.8338 9.62579L18.333 7.27746M7.02005 13.1437L5.78255 14.7737L1.66797 17.082" stroke="black" stroke-width="2" stroke-linecap="round" stroke-linejoin="round"/>
</svg>
