<svg width="13" height="13" viewBox="0 0 13 13" fill="none" xmlns="http://www.w3.org/2000/svg">
<path d="M3.5 9.49488V3.74515C3.5 3.55523 3.56549 3.40349 3.69646 3.28995C3.82689 3.1764 3.97933 3.11963 4.15378 3.11963C4.20853 3.11963 4.2657 3.12685 4.32528 3.14131C4.38433 3.15524 4.44096 3.17666 4.49517 3.20556L9.19968 6.09552C9.29952 6.16261 9.37466 6.23951 9.42512 6.32622C9.47504 6.41241 9.5 6.51021 9.5 6.61963C9.5 6.72904 9.47504 6.82685 9.42512 6.91304C9.3752 6.99923 9.30005 7.07613 9.19968 7.14374L4.49517 10.0337C4.44096 10.0621 4.38379 10.0835 4.32367 10.098C4.26355 10.1124 4.20639 10.1196 4.15217 10.1196C3.97719 10.1196 3.82474 10.0629 3.69485 9.94931C3.56495 9.83577 3.5 9.68429 3.5 9.49488Z" fill="#262626"/>
</svg>
