<svg width="20" height="20" viewBox="0 0 20 20" fill="none" xmlns="http://www.w3.org/2000/svg">
<path fill-rule="evenodd" clip-rule="evenodd" d="M10 1.66669C11.9891 1.66669 13.8968 2.45686 15.3033 3.86339C16.7098 5.26991 17.5 7.17756 17.5 9.16669C17.5 11.7284 16.1033 13.825 14.6317 15.3292C13.8964 16.0726 13.0941 16.7465 12.235 17.3425L11.88 17.5842L11.7133 17.695L11.3992 17.895L11.1192 18.0659L10.7725 18.2675C10.5372 18.4018 10.2709 18.4725 10 18.4725C9.72906 18.4725 9.4628 18.4018 9.2275 18.2675L8.88083 18.0659L8.4475 17.7992L8.2875 17.695L7.94583 17.4675C7.01903 16.8405 6.15575 16.1243 5.36833 15.3292C3.89667 13.8242 2.5 11.7284 2.5 9.16669C2.5 7.17756 3.29018 5.26991 4.6967 3.86339C6.10322 2.45686 8.01088 1.66669 10 1.66669ZM10 3.33335C8.4529 3.33335 6.96917 3.94793 5.87521 5.0419C4.78125 6.13586 4.16667 7.61959 4.16667 9.16669C4.16667 11.1017 5.22667 12.8 6.55917 14.1634C7.13211 14.7433 7.75138 15.2757 8.41083 15.755L8.7925 16.0267C8.91583 16.1128 9.03444 16.1928 9.14833 16.2667L9.47333 16.475L9.75917 16.6492L10 16.79L10.3792 16.5659L10.685 16.3742C10.8478 16.2709 11.0219 16.155 11.2075 16.0267L11.5892 15.755C12.2486 15.2757 12.8679 14.7433 13.4408 14.1634C14.7733 12.8009 15.8333 11.1017 15.8333 9.16669C15.8333 7.61959 15.2188 6.13586 14.1248 5.0419C13.0308 3.94793 11.5471 3.33335 10 3.33335ZM10 5.83335C10.8841 5.83335 11.7319 6.18454 12.357 6.80966C12.9821 7.43478 13.3333 8.28263 13.3333 9.16669C13.3333 10.0507 12.9821 10.8986 12.357 11.5237C11.7319 12.1488 10.8841 12.5 10 12.5C9.11594 12.5 8.2681 12.1488 7.64298 11.5237C7.01786 10.8986 6.66667 10.0507 6.66667 9.16669C6.66667 8.28263 7.01786 7.43478 7.64298 6.80966C8.2681 6.18454 9.11594 5.83335 10 5.83335ZM10 7.50002C9.55797 7.50002 9.13405 7.67561 8.82149 7.98818C8.50893 8.30074 8.33333 8.72466 8.33333 9.16669C8.33333 9.60871 8.50893 10.0326 8.82149 10.3452C9.13405 10.6578 9.55797 10.8334 10 10.8334C10.442 10.8334 10.866 10.6578 11.1785 10.3452C11.4911 10.0326 11.6667 9.60871 11.6667 9.16669C11.6667 8.72466 11.4911 8.30074 11.1785 7.98818C10.866 7.67561 10.442 7.50002 10 7.50002Z" fill="black"/>
</svg>
