<svg width="20" height="20" viewBox="0 0 20 20" fill="none" xmlns="http://www.w3.org/2000/svg">
<g clip-path="url(#clip0_886_876)">
<path fill-rule="evenodd" clip-rule="evenodd" d="M10.589 13.0892C10.4327 13.2454 10.2208 13.3332 9.99985 13.3332C9.77888 13.3332 9.56696 13.2454 9.41068 13.0892L4.69652 8.375C4.61693 8.29813 4.55344 8.20617 4.50977 8.1045C4.46609 8.00283 4.4431 7.89348 4.44214 7.78284C4.44118 7.67219 4.46227 7.56245 4.50417 7.46004C4.54607 7.35763 4.60795 7.26458 4.68619 7.18634C4.76443 7.10809 4.85748 7.04622 4.95989 7.00432C5.0623 6.96242 5.17204 6.94133 5.28269 6.94229C5.39333 6.94325 5.50268 6.96624 5.60435 7.00992C5.70603 7.05359 5.79798 7.11708 5.87485 7.19667L9.99985 11.3217L14.1248 7.19667C14.282 7.04487 14.4925 6.96087 14.711 6.96277C14.9295 6.96467 15.1385 7.05231 15.293 7.20682C15.4475 7.36133 15.5352 7.57034 15.5371 7.78883C15.539 8.00733 15.455 8.21783 15.3032 8.375L10.589 13.0892Z" fill="black"/>
</g>
<defs>
<clipPath id="clip0_886_876">
<rect width="20" height="20" fill="white" transform="matrix(0 1 -1 0 20 0)"/>
</clipPath>
</defs>
</svg>
