<svg width="25" height="25" viewBox="0 0 25 25" fill="none" xmlns="http://www.w3.org/2000/svg">
<path d="M7.5 12.5C7.5 13.0304 7.28929 13.5391 6.91421 13.9142C6.53914 14.2893 6.03043 14.5 5.5 14.5C4.96957 14.5 4.46086 14.2893 4.08579 13.9142C3.71071 13.5391 3.5 13.0304 3.5 12.5C3.5 11.9696 3.71071 11.4609 4.08579 11.0858C4.46086 10.7107 4.96957 10.5 5.5 10.5C6.03043 10.5 6.53914 10.7107 6.91421 11.0858C7.28929 11.4609 7.5 11.9696 7.5 12.5ZM14.5 12.5C14.5 13.0304 14.2893 13.5391 13.9142 13.9142C13.5391 14.2893 13.0304 14.5 12.5 14.5C11.9696 14.5 11.4609 14.2893 11.0858 13.9142C10.7107 13.5391 10.5 13.0304 10.5 12.5C10.5 11.9696 10.7107 11.4609 11.0858 11.0858C11.4609 10.7107 11.9696 10.5 12.5 10.5C13.0304 10.5 13.5391 10.7107 13.9142 11.0858C14.2893 11.4609 14.5 11.9696 14.5 12.5ZM21.5 12.5C21.5 13.0304 21.2893 13.5391 20.9142 13.9142C20.5391 14.2893 20.0304 14.5 19.5 14.5C18.9696 14.5 18.4609 14.2893 18.0858 13.9142C17.7107 13.5391 17.5 13.0304 17.5 12.5C17.5 11.9696 17.7107 11.4609 18.0858 11.0858C18.4609 10.7107 18.9696 10.5 19.5 10.5C20.0304 10.5 20.5391 10.7107 20.9142 11.0858C21.2893 11.4609 21.5 11.9696 21.5 12.5Z" fill="#6A7282"/>
</svg>
