<svg width="20" height="20" viewBox="0 0 20 20" fill="none" xmlns="http://www.w3.org/2000/svg">
<path d="M16.6663 8.33329C16.6663 13.75 9.99967 18.3333 9.99967 18.3333C9.99967 18.3333 3.33301 13.75 3.33301 8.33329C3.33301 6.56518 4.03539 4.86949 5.28563 3.61925C6.53587 2.36901 8.23156 1.66663 9.99967 1.66663C11.7678 1.66663 13.4635 2.36901 14.7137 3.61925C15.964 4.86949 16.6663 6.56518 16.6663 8.33329Z" stroke="#6A7282" stroke-width="1.66667"/>
<path d="M12.5 8.33325C12.5 8.99629 12.2366 9.63218 11.7678 10.101C11.2989 10.5699 10.663 10.8333 10 10.8333C9.33696 10.8333 8.70107 10.5699 8.23223 10.101C7.76339 9.63218 7.5 8.99629 7.5 8.33325C7.5 7.67021 7.76339 7.03433 8.23223 6.56549C8.70107 6.09664 9.33696 5.83325 10 5.83325C10.663 5.83325 11.2989 6.09664 11.7678 6.56549C12.2366 7.03433 12.5 7.67021 12.5 8.33325Z" stroke="#6A7282" stroke-width="1.66667"/>
</svg>
